<?xml version="1.0" encoding="UTF-8"?>
<svg xmlns="http://www.w3.org/2000/svg" xmlns:xlink="http://www.w3.org/1999/xlink" width="361.54" height="333.12" viewBox="0 0 361.54 333.12">
<defs>
<g>
<g id="glyph-0-0">
<path d="M 0.625 -5.28125 C 1.359375 -5.21875 3.34375 -5.1875 6.546875 -5.1875 C 6.546875 -6.265625 6.515625 -7.390625 6.453125 -8.5625 C 6.46875 -8.625 6.515625 -8.65625 6.5625 -8.640625 L 7.875 -8.4375 C 8.109375 -8.40625 8.25 -8.390625 8.28125 -8.390625 C 8.34375 -8.375 8.390625 -8.359375 8.421875 -8.359375 L 9.640625 -10.234375 C 5.671875 -10.21875 3.5 -10.203125 3.125 -10.171875 C 3.015625 -10.3125 2.890625 -10.421875 2.78125 -10.546875 C 3.359375 -10.515625 5.578125 -10.5 9.453125 -10.5 C 9.71875 -10.890625 9.9375 -11.078125 10.125 -11.078125 C 10.1875 -11.09375 10.28125 -11.0625 10.390625 -11.015625 C 11.34375 -10.578125 11.890625 -10.28125 12.046875 -10.125 C 12.234375 -9.96875 12.34375 -9.828125 12.34375 -9.671875 C 12.359375 -9.546875 12.265625 -9.453125 12.09375 -9.390625 C 12 -9.359375 11.921875 -9.34375 11.84375 -9.328125 C 11.171875 -9.25 10.125 -8.828125 8.703125 -8.0625 C 8.578125 -7.890625 8.453125 -7.75 8.328125 -7.671875 L 8.328125 -5.1875 L 11.546875 -5.1875 C 12.21875 -6.078125 12.625 -6.515625 12.75 -6.515625 C 12.796875 -6.5 12.890625 -6.453125 13 -6.34375 C 13.875 -5.609375 14.3125 -5.171875 14.3125 -5.046875 C 14.296875 -4.953125 14.234375 -4.90625 14.09375 -4.90625 L 8.328125 -4.90625 L 8.328125 0.53125 C 8.3125 0.90625 8.25 1.1875 8.109375 1.359375 C 8.015625 1.5 7.796875 1.625 7.515625 1.734375 C 6.484375 2.140625 5.96875 2.109375 5.96875 1.65625 C 5.8125 1.09375 5.4375 0.71875 4.859375 0.53125 C 4.6875 0.46875 4.546875 0.421875 4.375 0.375 C 4.265625 0.34375 4.203125 0.296875 4.203125 0.234375 C 4.140625 0.078125 4.203125 0.03125 4.375 0.125 C 5.578125 0.171875 6.234375 0.1875 6.359375 0.1875 C 6.453125 0.15625 6.5 0.09375 6.515625 -0.015625 C 6.53125 -0.109375 6.546875 -1.734375 6.546875 -4.90625 C 3.34375 -4.90625 1.484375 -4.890625 0.953125 -4.859375 Z M 0.625 -5.28125 "/>
</g>
<g id="glyph-0-1">
<path d="M 1.5625 1.3125 L 4.140625 1.3125 L 4.46875 -4.453125 C 3.046875 -4.453125 2.0625 -4.4375 1.53125 -4.40625 C 1.390625 -4.5625 1.265625 -4.6875 1.125 -4.828125 C 1.984375 -4.75 3.109375 -4.71875 4.515625 -4.71875 L 4.75 -9.84375 C 3.515625 -9.84375 2.640625 -9.828125 2.140625 -9.796875 L 1.703125 -10.234375 C 2.078125 -10.203125 2.4375 -10.171875 2.8125 -10.125 L 9.640625 -10.125 C 9.625 -10.140625 9.65625 -10.1875 9.71875 -10.25 C 10.03125 -10.6875 10.265625 -10.890625 10.375 -10.890625 C 10.453125 -10.875 10.65625 -10.78125 10.96875 -10.609375 C 11.015625 -10.578125 11.0625 -10.546875 11.109375 -10.515625 C 11.4375 -10.375 11.671875 -10.21875 11.84375 -10.03125 C 11.953125 -9.9375 12.015625 -9.875 12.015625 -9.8125 C 12.015625 -9.71875 11.84375 -9.546875 11.53125 -9.28125 L 11.09375 1.3125 L 11.859375 1.3125 C 12.484375 0.453125 12.859375 0.03125 13 0.03125 C 13.046875 0.015625 13.203125 0.125 13.453125 0.328125 C 13.5625 0.421875 13.640625 0.5 13.6875 0.5625 C 13.78125 0.65625 13.9375 0.8125 14.140625 1.015625 C 14.375 1.25 14.484375 1.375 14.484375 1.4375 C 14.46875 1.53125 14.40625 1.578125 14.25 1.578125 C 5.90625 1.578125 1.4375 1.59375 0.859375 1.625 C 0.6875 1.46875 0.5625 1.328125 0.46875 1.21875 C 0.5 1.171875 0.859375 1.203125 1.5625 1.3125 Z M 5.8125 1.296875 L 9.390625 1.296875 L 9.640625 -4.453125 L 6.15625 -4.453125 Z M 6.1875 -4.71875 L 9.671875 -4.71875 L 9.859375 -9.84375 L 6.90625 -9.84375 C 6.796875 -9.671875 6.640625 -9.546875 6.4375 -9.453125 Z M 6.1875 -4.71875 "/>
</g>
<g id="glyph-0-2">
<path d="M 5.015625 -0.796875 C 5.0625 -0.859375 5.09375 -0.921875 5.15625 -0.953125 C 5.375 -0.96875 5.9375 -0.703125 6.890625 -0.15625 C 7.09375 -0.015625 7.203125 0.09375 7.203125 0.171875 C 7.1875 0.3125 6.984375 0.40625 6.59375 0.4375 C 6.015625 0.78125 5.5 1.046875 5.09375 1.265625 C 5.03125 1.28125 4.984375 1.296875 4.9375 1.3125 C 3.21875 2 1.84375 2.34375 0.8125 2.34375 C 0.703125 2.359375 0.65625 2.328125 0.65625 2.234375 C 0.671875 2.171875 0.71875 2.125 0.796875 2.09375 C 1.875 1.640625 2.734375 1.1875 3.34375 0.78125 C 3.59375 0.578125 4.15625 0.0625 5.015625 -0.796875 Z M 2.828125 -8.9375 L 6.890625 -8.9375 C 6.640625 -9.078125 6.5 -9.1875 6.4375 -9.28125 C 6.359375 -9.421875 6.3125 -9.640625 6.3125 -9.9375 C 6.3125 -10.625 6.15625 -11.0625 5.828125 -11.265625 C 5.765625 -11.34375 5.71875 -11.40625 5.71875 -11.4375 C 5.734375 -11.484375 5.78125 -11.515625 5.859375 -11.515625 C 6.703125 -11.5 7.375 -11.296875 7.875 -10.890625 C 8.15625 -10.609375 8.3125 -10.3125 8.3125 -9.96875 C 8.296875 -9.65625 8.171875 -9.40625 7.96875 -9.1875 C 7.859375 -9.125 7.734375 -9.03125 7.578125 -8.9375 L 11.640625 -8.9375 C 11.921875 -9.4375 12.171875 -9.6875 12.359375 -9.6875 C 12.4375 -9.6875 12.609375 -9.609375 12.875 -9.453125 C 13.3125 -9.203125 13.6875 -8.953125 14.015625 -8.703125 C 14.28125 -8.46875 14.421875 -8.3125 14.421875 -8.1875 L 14.140625 -7.921875 C 12.90625 -7.90625 12.046875 -7.703125 11.609375 -7.3125 C 11.78125 -7.15625 11.953125 -6.953125 12.15625 -6.734375 C 12.140625 -6.625 12.078125 -6.578125 11.9375 -6.578125 L 8.1875 -6.578125 C 8.125 -6.484375 8.0625 -6.421875 7.96875 -6.375 L 7.96875 -5.28125 L 9.921875 -5.28125 C 10.140625 -5.71875 10.328125 -5.9375 10.5 -5.9375 C 10.546875 -5.921875 10.953125 -5.765625 11.6875 -5.4375 C 12.046875 -5.21875 12.21875 -5.0625 12.21875 -4.9375 C 12.203125 -4.8125 12.078125 -4.6875 11.8125 -4.5625 C 11.8125 -2.9375 11.828125 -1.796875 11.890625 -1.125 C 11.875 -0.90625 11.8125 -0.75 11.65625 -0.65625 C 11.46875 -0.53125 11.171875 -0.46875 10.75 -0.46875 C 10.5 -0.484375 10.3125 -0.5 10.234375 -0.53125 C 10.140625 -0.5625 10.09375 -0.59375 10.09375 -0.671875 C 10.078125 -0.796875 10.0625 -0.9375 10.0625 -1.125 L 4.34375 -1.125 C 4.328125 -0.890625 4.3125 -0.71875 4.25 -0.609375 C 4.109375 -0.453125 3.9375 -0.359375 3.71875 -0.3125 C 3.234375 -0.234375 2.921875 -0.21875 2.78125 -0.296875 C 2.703125 -0.390625 2.65625 -0.515625 2.671875 -0.671875 C 2.78125 -2.546875 2.78125 -4.296875 2.671875 -5.859375 C 2.6875 -5.90625 2.734375 -5.9375 2.796875 -5.9375 L 4.296875 -5.3125 C 4.34375 -5.296875 5.03125 -5.28125 6.328125 -5.28125 L 6.328125 -6.578125 C 4.8125 -6.59375 3.71875 -6.578125 3.015625 -6.5625 C 2.90625 -6.703125 2.796875 -6.84375 2.671875 -6.96875 C 3.46875 -6.921875 5.671875 -6.890625 9.3125 -6.890625 C 9.984375 -7.6875 10.359375 -8.078125 10.46875 -8.078125 C 10.609375 -8.09375 10.921875 -7.890625 11.421875 -7.484375 C 11.578125 -7.859375 11.75 -8.25 11.890625 -8.65625 L 2.890625 -8.65625 C 2.90625 -8.46875 2.921875 -8.328125 2.921875 -8.203125 C 2.921875 -7.53125 2.671875 -7.015625 2.171875 -6.703125 C 2.03125 -6.59375 1.84375 -6.5625 1.640625 -6.5625 C 1 -6.546875 0.6875 -6.859375 0.6875 -7.46875 C 0.703125 -7.734375 0.796875 -7.9375 0.984375 -8.0625 C 1.53125 -8.328125 1.859375 -8.671875 1.984375 -9.078125 C 2.03125 -9.234375 2.046875 -9.5 2.046875 -9.828125 C 2.046875 -9.90625 2.0625 -9.9375 2.125 -9.9375 C 2.171875 -9.9375 2.265625 -9.859375 2.4375 -9.65625 C 2.53125 -9.5 2.671875 -9.25 2.828125 -8.9375 Z M 4.34375 -1.421875 L 6.328125 -1.421875 L 6.328125 -3.1875 L 4.34375 -3.1875 Z M 6.328125 -3.453125 L 6.328125 -5 L 4.34375 -5 L 4.34375 -3.453125 Z M 7.96875 -1.421875 L 10.0625 -1.421875 L 10.0625 -3.1875 L 7.96875 -3.1875 Z M 7.96875 -3.453125 L 10.0625 -3.453125 L 10.0625 -5 L 7.96875 -5 Z M 11.703125 2.1875 C 11.53125 2.03125 11.40625 1.859375 11.265625 1.703125 C 10.453125 0.90625 9.375 0.25 8.03125 -0.203125 C 7.921875 -0.265625 7.859375 -0.3125 7.859375 -0.34375 C 7.90625 -0.421875 7.953125 -0.453125 8.015625 -0.453125 C 8.9375 -0.4375 9.484375 -0.421875 9.625 -0.375 C 11.328125 -0.265625 12.515625 0.125 13.15625 0.765625 C 13.34375 0.96875 13.4375 1.234375 13.4375 1.515625 C 13.421875 1.90625 13.265625 2.203125 12.9375 2.421875 C 12.8125 2.515625 12.640625 2.5625 12.46875 2.5625 C 12.1875 2.546875 11.921875 2.421875 11.703125 2.1875 Z M 11.703125 2.1875 "/>
</g>
<g id="glyph-0-3">
<path d="M 5.25 -3.34375 L 3.5625 -2.046875 C 3.234375 -1.78125 2.96875 -1.59375 2.75 -1.421875 C 2.515625 -1.265625 2.390625 -1.15625 2.359375 -1.125 C 2.3125 -1.125 2.296875 -1.125 2.28125 -1.109375 C 2.21875 -1.125 2.1875 -1.171875 2.171875 -1.265625 C 1.734375 -2.328125 1.53125 -2.875 1.53125 -2.90625 L 1.75 -3.28125 C 1.828125 -3.484375 1.859375 -4.46875 1.859375 -6.25 C 1.84375 -7.796875 1.8125 -9.125 1.75 -10.203125 C 1.765625 -10.25 1.8125 -10.28125 1.875 -10.28125 C 1.984375 -10.25 2.46875 -10.03125 3.359375 -9.640625 C 3.375 -9.65625 3.40625 -9.671875 3.4375 -9.671875 C 4.640625 -10.203125 5.359375 -10.640625 5.578125 -10.96875 C 5.828125 -11.21875 6 -11.375 6.109375 -11.40625 C 6.171875 -11.390625 6.203125 -11.375 6.234375 -11.34375 C 6.375 -11.21875 6.515625 -11.109375 6.65625 -11.03125 C 6.796875 -10.9375 6.921875 -10.84375 7.015625 -10.75 L 7.578125 -10.3125 C 7.65625 -10.21875 7.71875 -10.15625 7.78125 -10.109375 C 7.859375 -10.03125 7.890625 -9.984375 7.890625 -9.9375 C 7.890625 -9.875 7.828125 -9.828125 7.6875 -9.78125 C 7.609375 -9.78125 7.328125 -9.75 6.90625 -9.6875 C 5.0625 -9.421875 4.0625 -9.28125 3.921875 -9.265625 C 3.765625 -9.234375 3.609375 -9.21875 3.46875 -9.21875 L 3.46875 -3.546875 C 4.140625 -3.703125 4.765625 -3.875 5.359375 -4.0625 C 5.40625 -4.796875 5.40625 -6.3125 5.359375 -8.609375 C 5.34375 -8.703125 5.375 -8.75 5.453125 -8.75 L 5.546875 -8.75 C 6.3125 -8.75 6.9375 -8.640625 7.453125 -8.4375 C 7.5625 -8.359375 7.625 -8.296875 7.625 -8.21875 C 7.625 -8.140625 7.46875 -8 7.1875 -7.78125 C 7.1875 -5.484375 7.125 -3.9375 7 -3.109375 C 6.71875 -1.296875 5.703125 0.046875 3.953125 0.90625 C 3.234375 1.25 2.578125 1.5 2 1.65625 C 1.734375 1.703125 1.5 1.765625 1.28125 1.84375 C 1.109375 1.890625 0.984375 1.90625 0.9375 1.90625 C 0.859375 1.890625 0.8125 1.875 0.828125 1.828125 C 0.828125 1.71875 0.96875 1.640625 1.28125 1.5625 C 1.421875 1.453125 1.59375 1.375 1.765625 1.3125 C 3.796875 0.28125 4.96875 -1.265625 5.25 -3.34375 Z M 11.96875 -8.984375 L 10 -8.984375 C 10 -3 10.015625 0.296875 10.046875 0.9375 C 10.0625 1.59375 10.046875 1.984375 9.984375 2.09375 C 9.921875 2.171875 9.75 2.234375 9.53125 2.296875 C 8.9375 2.390625 8.59375 2.390625 8.46875 2.296875 C 8.375 2.21875 8.34375 1.96875 8.375 1.5625 C 8.421875 0.5625 8.4375 -1.453125 8.4375 -4.46875 C 8.4375 -6.84375 8.421875 -8.640625 8.34375 -9.890625 C 8.359375 -9.9375 8.40625 -9.96875 8.46875 -9.96875 C 8.515625 -9.96875 9 -9.765625 9.9375 -9.359375 C 10.078125 -9.296875 10.6875 -9.265625 11.78125 -9.265625 C 12.09375 -9.765625 12.328125 -10 12.484375 -10 C 12.734375 -9.984375 13.25 -9.71875 14.015625 -9.1875 C 14.109375 -9.09375 14.171875 -9.015625 14.171875 -8.9375 C 14.15625 -8.8125 13.984375 -8.640625 13.625 -8.4375 L 13.625 -1.078125 C 13.625 -0.6875 13.53125 -0.40625 13.328125 -0.21875 C 12.875 0.125 12.34375 0.28125 11.75 0.28125 C 11.609375 0.28125 11.53125 0.234375 11.515625 0.15625 C 11.5 0.125 11.5 0.109375 11.5 0.09375 L 11.453125 -0.3125 C 11.40625 -0.734375 11.15625 -1 10.734375 -1.125 C 10.609375 -1.1875 10.46875 -1.234375 10.328125 -1.28125 C 10.234375 -1.3125 10.171875 -1.359375 10.171875 -1.40625 C 10.15625 -1.46875 10.21875 -1.5 10.328125 -1.515625 C 11.140625 -1.453125 11.65625 -1.46875 11.859375 -1.5625 C 11.9375 -1.609375 11.96875 -1.6875 11.96875 -1.8125 Z M 11.96875 -8.984375 "/>
</g>
<g id="glyph-0-4">
<path d="M 4.09375 -10.015625 L 10.65625 -10.015625 C 11.28125 -10.828125 11.640625 -11.234375 11.734375 -11.234375 C 11.8125 -11.1875 11.859375 -11.15625 11.921875 -11.109375 C 12.859375 -10.375 13.3125 -9.953125 13.3125 -9.84375 C 13.3125 -9.765625 13.265625 -9.734375 13.171875 -9.734375 L 3.9375 -9.734375 L 3.921875 -5.359375 L 11.5 -5.359375 C 11.9375 -6.03125 12.21875 -6.390625 12.34375 -6.4375 C 12.421875 -6.53125 12.5 -6.5625 12.5625 -6.5625 C 12.625 -6.5625 12.78125 -6.46875 13 -6.265625 C 13.703125 -5.75 14.0625 -5.390625 14.0625 -5.203125 C 14.0625 -5.125 14.03125 -5.078125 13.9375 -5.078125 L 8.4375 -5.078125 C 8.671875 -4.171875 9.140625 -3.234375 9.84375 -2.265625 C 10.1875 -2.71875 10.453125 -3.078125 10.640625 -3.328125 L 11.046875 -4.0625 C 11.109375 -4.265625 11.1875 -4.453125 11.28125 -4.640625 C 11.3125 -4.6875 11.359375 -4.703125 11.421875 -4.703125 C 11.46875 -4.703125 11.671875 -4.640625 11.984375 -4.46875 C 12.890625 -3.9375 13.328125 -3.578125 13.328125 -3.4375 C 13.328125 -3.296875 13.25 -3.234375 13.0625 -3.234375 C 12.8125 -3.234375 12.4375 -3.09375 11.9375 -2.8125 C 11.03125 -2.25 10.46875 -1.890625 10.28125 -1.734375 C 11.25 -0.6875 12.5625 0.109375 14.15625 0.625 C 14.296875 0.671875 14.359375 0.71875 14.359375 0.78125 C 14.34375 0.859375 14.28125 0.90625 14.15625 0.921875 C 13.84375 0.953125 13.671875 0.96875 13.640625 0.96875 C 13.046875 1.109375 12.625 1.453125 12.359375 2.03125 C 12.28125 2.140625 12.21875 2.203125 12.171875 2.203125 C 12.078125 2.203125 11.96875 2.15625 11.84375 2.0625 C 11.734375 1.96875 11.515625 1.796875 11.234375 1.578125 C 10.3125 0.875 9.578125 0 9.046875 -1.03125 C 7.34375 0.453125 6.4375 1.265625 6.28125 1.421875 C 5.78125 1.859375 5.5 2.078125 5.46875 2.109375 C 5.40625 2.09375 5.328125 2 5.25 1.78125 C 4.828125 0.796875 4.609375 0.234375 4.578125 0.125 C 4.59375 0.078125 4.6875 -0.03125 4.859375 -0.203125 L 4.9375 -5.078125 L 3.921875 -5.078125 C 3.90625 -4.375 3.8125 -3.390625 3.625 -2.09375 C 3.3125 -0.5 2.53125 0.828125 1.28125 1.890625 C 1.15625 1.96875 1.046875 2.0625 0.9375 2.140625 C 0.9375 2.171875 0.90625 2.1875 0.875 2.1875 C 0.8125 2.171875 0.78125 2.15625 0.78125 2.109375 C 0.796875 1.984375 0.90625 1.78125 1.09375 1.5625 C 1.484375 1 1.78125 0.28125 2 -0.5625 C 2.296875 -1.875 2.359375 -5.28125 2.15625 -10.765625 C 2.15625 -10.875 2.171875 -10.921875 2.21875 -10.921875 C 2.234375 -10.90625 2.859375 -10.609375 4.09375 -10.015625 Z M 6.453125 -4.671875 L 6.453125 -0.4375 C 7.421875 -0.75 8.25 -1.015625 8.921875 -1.265625 C 8.359375 -2.40625 8.0625 -3.671875 8.0625 -5.078125 L 6.84375 -5.078125 C 6.734375 -4.9375 6.609375 -4.796875 6.453125 -4.671875 Z M 5.25 -7.671875 L 9.765625 -7.671875 C 10.3125 -8.453125 10.6875 -8.859375 10.828125 -8.859375 C 10.875 -8.859375 11.03125 -8.765625 11.28125 -8.546875 C 11.296875 -8.546875 11.296875 -8.546875 11.3125 -8.53125 C 11.984375 -7.953125 12.3125 -7.609375 12.3125 -7.484375 C 12.296875 -7.40625 12.265625 -7.375 12.1875 -7.375 C 7.59375 -7.375 5.078125 -7.359375 4.6875 -7.328125 L 4.265625 -7.75 Z M 5.25 -7.671875 "/>
</g>
<g id="glyph-0-5">
<path d="M 11.5625 -9.15625 C 11.578125 -7.140625 11.59375 -5.890625 11.609375 -5.4375 C 11.609375 -5.03125 11.5625 -4.78125 11.46875 -4.6875 C 11.25 -4.484375 10.8125 -4.375 10.171875 -4.375 C 10 -4.375 9.921875 -4.390625 9.890625 -4.421875 C 9.78125 -4.5 9.734375 -4.828125 9.734375 -5.421875 L 3.640625 -5.421875 L 3.640625 -0.859375 C 3.65625 -0.59375 3.703125 -0.421875 3.8125 -0.3125 C 4.359375 0.09375 6.828125 0.203125 11.171875 0.03125 C 11.46875 -0.015625 11.71875 -0.078125 11.90625 -0.15625 C 12.28125 -0.359375 12.734375 -1 13.25 -2.078125 C 13.3125 -2.25 13.375 -2.40625 13.453125 -2.546875 C 13.5 -2.625 13.53125 -2.65625 13.578125 -2.65625 C 13.65625 -2.640625 13.6875 -2.59375 13.6875 -2.484375 L 13.4375 -0.8125 L 13.9375 0.53125 C 13.9375 0.75 13.828125 0.953125 13.625 1.140625 C 13.578125 1.15625 13.5625 1.171875 13.546875 1.203125 C 12.65625 1.734375 9.75 1.890625 4.796875 1.671875 C 3.25 1.515625 2.375 1.1875 2.140625 0.6875 C 2.046875 0.4375 1.984375 0.046875 1.984375 -0.453125 L 1.984375 -8.578125 L 1.875 -10.484375 C 1.890625 -10.53125 1.9375 -10.5625 2 -10.5625 L 3.796875 -9.90625 C 3.859375 -9.875 5.8125 -9.859375 9.640625 -9.859375 C 9.890625 -10.375 10.109375 -10.640625 10.3125 -10.640625 C 10.328125 -10.65625 10.375 -10.640625 10.421875 -10.609375 C 11.03125 -10.390625 11.484375 -10.171875 11.8125 -9.9375 C 11.96875 -9.84375 12.046875 -9.75 12.046875 -9.65625 C 12.03125 -9.515625 11.859375 -9.34375 11.5625 -9.15625 Z M 3.640625 -5.703125 L 9.734375 -5.703125 L 9.734375 -9.5625 L 3.640625 -9.5625 Z M 3.640625 -5.703125 "/>
</g>
<g id="glyph-0-6">
<path d="M 6.5 -4.40625 L 6.5 -8.3125 L 4.40625 -8.3125 C 4.0625 -7.734375 3.703125 -7.203125 3.359375 -6.703125 C 2.390625 -5.40625 1.8125 -4.734375 1.65625 -4.734375 C 1.609375 -4.734375 1.578125 -4.78125 1.578125 -4.875 C 1.59375 -4.890625 1.59375 -4.921875 1.59375 -4.953125 C 1.71875 -5.203125 1.859375 -5.453125 2 -5.6875 C 2.953125 -8.09375 3.4375 -9.953125 3.4375 -11.28125 C 3.421875 -11.328125 3.453125 -11.359375 3.515625 -11.359375 C 3.703125 -11.359375 4.25 -11.171875 5.15625 -10.828125 C 5.625 -10.640625 5.859375 -10.4375 5.859375 -10.265625 C 5.859375 -10.1875 5.8125 -10.109375 5.734375 -10.046875 C 5.625 -10 5.46875 -9.953125 5.265625 -9.9375 C 5.046875 -9.5 4.828125 -9.046875 4.625 -8.59375 L 10.09375 -8.59375 C 10.8125 -9.390625 11.1875 -9.796875 11.21875 -9.796875 C 11.265625 -9.796875 11.34375 -9.765625 11.4375 -9.703125 C 12.3125 -8.984375 12.75 -8.578125 12.75 -8.46875 C 12.75 -8.375 12.65625 -8.3125 12.484375 -8.3125 L 8.671875 -8.3125 C 8.59375 -8.109375 8.453125 -7.96875 8.265625 -7.875 L 8.265625 -4.40625 L 11.453125 -4.40625 C 11.53125 -4.515625 11.625 -4.609375 11.71875 -4.703125 C 12.234375 -5.359375 12.5625 -5.6875 12.671875 -5.6875 C 12.75 -5.671875 12.90625 -5.578125 13.109375 -5.390625 C 13.84375 -4.796875 14.21875 -4.4375 14.21875 -4.296875 C 14.21875 -4.21875 14.171875 -4.15625 14.0625 -4.125 L 8.265625 -4.109375 C 8.265625 -1.28125 8.296875 0.640625 8.359375 1.6875 C 8.3125 1.90625 8.171875 2.0625 7.9375 2.15625 C 7.65625 2.25 7.3125 2.296875 6.953125 2.296875 C 6.703125 2.3125 6.546875 2.265625 6.484375 2.171875 C 6.421875 2.09375 6.390625 2.03125 6.390625 1.9375 C 6.46875 0.53125 6.5 -1.484375 6.5 -4.109375 C 3.484375 -4.109375 1.6875 -4.09375 1.09375 -4.0625 L 0.828125 -4.5 C 1.46875 -4.4375 3.359375 -4.40625 6.5 -4.40625 Z M 6.5 -4.40625 "/>
</g>
<g id="glyph-0-7">
<path d="M 8.09375 -5.484375 L 11.328125 -5.484375 C 11.96875 -6.25 12.328125 -6.625 12.421875 -6.625 C 12.5 -6.625 12.59375 -6.5625 12.75 -6.4375 C 13.46875 -5.796875 13.828125 -5.421875 13.828125 -5.3125 C 13.8125 -5.234375 13.765625 -5.203125 13.671875 -5.203125 L 8.640625 -5.203125 C 8.703125 -5.046875 8.78125 -4.875 8.859375 -4.6875 C 10.015625 -2.390625 11.8125 -1.03125 14.203125 -0.640625 C 14.390625 -0.625 14.46875 -0.5625 14.46875 -0.484375 C 14.46875 -0.40625 14.40625 -0.359375 14.25 -0.3125 C 13.53125 -0.15625 13.015625 0.3125 12.734375 1.109375 C 12.6875 1.1875 12.625 1.234375 12.5625 1.234375 C 12.53125 1.21875 12.375 1.140625 12.15625 0.984375 C 11.640625 0.703125 11.09375 0.28125 10.546875 -0.25 C 9.265625 -1.5 8.53125 -3.109375 8.34375 -5.0625 C 8.328125 -5.109375 8.3125 -5.15625 8.3125 -5.203125 L 8.09375 -5.203125 L 8.140625 1.171875 C 8.125 1.625 8.0625 1.890625 7.984375 2 C 7.78125 2.125 7.4375 2.1875 6.96875 2.1875 C 6.71875 2.1875 6.5625 2.140625 6.453125 2.046875 C 6.375 1.96875 6.34375 1.875 6.34375 1.78125 C 6.40625 0.484375 6.4375 -1.375 6.4375 -3.78125 C 5.75 -2.8125 4.953125 -1.875 4.03125 -0.984375 C 3.1875 -0.25 2.125 0.46875 0.875 1.171875 L 0.859375 1.171875 C 0.78125 1.203125 0.734375 1.21875 0.75 1.21875 C 0.671875 1.21875 0.640625 1.1875 0.640625 1.125 C 0.640625 1.09375 0.6875 1.03125 0.78125 0.9375 C 1.1875 0.625 1.515625 0.34375 1.765625 0.09375 C 3.140625 -1.21875 4.203125 -2.96875 5 -5.203125 C 2.765625 -5.203125 1.4375 -5.1875 1.03125 -5.15625 L 0.609375 -5.578125 L 1.578125 -5.484375 L 6.4375 -5.484375 L 6.4375 -8.09375 C 4.03125 -8.09375 2.625 -8.078125 2.21875 -8.0625 L 1.765625 -8.46875 C 2.109375 -8.453125 2.4375 -8.4375 2.78125 -8.390625 L 6.4375 -8.390625 C 6.421875 -9.1875 6.390625 -10.09375 6.328125 -11.140625 C 6.328125 -11.203125 6.375 -11.234375 6.46875 -11.234375 C 6.71875 -11.21875 7.09375 -11.1875 7.609375 -11.125 C 8.28125 -11.046875 8.609375 -10.90625 8.609375 -10.703125 C 8.59375 -10.640625 8.4375 -10.484375 8.109375 -10.28125 L 8.09375 -8.390625 L 10.328125 -8.390625 C 10.515625 -8.609375 10.71875 -8.84375 10.96875 -9.125 C 11.03125 -9.171875 11.0625 -9.203125 11.0625 -9.234375 C 11.125 -9.28125 11.171875 -9.328125 11.21875 -9.375 C 11.328125 -9.484375 11.40625 -9.53125 11.453125 -9.53125 C 11.53125 -9.53125 11.640625 -9.453125 11.796875 -9.296875 C 12.515625 -8.703125 12.875 -8.34375 12.875 -8.21875 C 12.875 -8.140625 12.828125 -8.09375 12.734375 -8.09375 L 8.09375 -8.09375 Z M 8.09375 -5.484375 "/>
</g>
<g id="glyph-0-8">
<path d="M 6.53125 -8.546875 C 6.515625 -8.890625 6.484375 -9.828125 6.421875 -11.359375 C 6.4375 -11.4375 6.515625 -11.453125 6.625 -11.453125 C 7.4375 -11.453125 8.046875 -11.390625 8.421875 -11.234375 C 8.59375 -11.15625 8.6875 -11.078125 8.6875 -11.015625 C 8.671875 -10.96875 8.5 -10.8125 8.1875 -10.5625 L 8.1875 -8.546875 L 10.96875 -8.546875 C 11.125 -8.828125 11.25 -9.015625 11.328125 -9.109375 C 11.390625 -9.1875 11.453125 -9.234375 11.546875 -9.234375 C 11.75 -9.234375 12.203125 -9.015625 12.96875 -8.578125 C 13.296875 -8.421875 13.4375 -8.28125 13.4375 -8.1875 C 13.421875 -8.125 13.265625 -7.96875 12.96875 -7.703125 C 12.96875 -4.3125 12.984375 -2.421875 13.015625 -2.0625 C 13 -1.765625 12.9375 -1.59375 12.84375 -1.484375 C 12.734375 -1.40625 12.5625 -1.34375 12.296875 -1.296875 C 11.796875 -1.21875 11.4375 -1.234375 11.25 -1.34375 C 11.171875 -1.421875 11.140625 -1.84375 11.140625 -2.640625 L 8.1875 -2.640625 C 8.203125 -0.703125 8.21875 0.703125 8.265625 1.625 C 8.25 1.90625 8.1875 2.078125 8.078125 2.1875 C 7.6875 2.4375 7.203125 2.484375 6.59375 2.34375 C 6.46875 2.296875 6.40625 2.203125 6.421875 2.046875 L 6.53125 -2.640625 L 3.6875 -2.640625 L 3.6875 -1.625 C 3.6875 -1.453125 3.515625 -1.3125 3.171875 -1.234375 C 2.5625 -1.078125 2.1875 -1.078125 2.03125 -1.25 C 1.953125 -1.3125 1.921875 -1.375 1.921875 -1.4375 C 2.046875 -3.765625 2.046875 -6.375 1.921875 -9.265625 C 1.9375 -9.3125 1.984375 -9.34375 2.0625 -9.34375 L 3.75 -8.59375 Z M 6.53125 -5.609375 L 3.6875 -5.609375 L 3.6875 -2.90625 L 6.53125 -2.90625 Z M 6.53125 -5.890625 L 6.53125 -8.265625 L 3.6875 -8.265625 L 3.6875 -5.890625 Z M 8.1875 -2.90625 L 11.140625 -2.90625 L 11.140625 -5.609375 L 8.1875 -5.609375 Z M 8.1875 -5.890625 L 11.140625 -5.890625 L 11.140625 -8.265625 L 8.1875 -8.265625 Z M 8.1875 -5.890625 "/>
</g>
<g id="glyph-0-9">
<path d="M 13.8125 -9.5 L 9.3125 -9.5 C 9.234375 -9.375 9.15625 -9.265625 9.015625 -9.171875 L 9.015625 -7.296875 L 10.828125 -7.296875 C 11.140625 -7.71875 11.359375 -7.9375 11.453125 -7.9375 C 11.5 -7.921875 11.609375 -7.890625 11.765625 -7.8125 C 11.84375 -7.765625 11.984375 -7.703125 12.1875 -7.640625 C 12.359375 -7.5625 12.5625 -7.453125 12.78125 -7.3125 C 12.953125 -7.1875 13.046875 -7.078125 13.046875 -7 C 13.03125 -6.90625 12.890625 -6.765625 12.578125 -6.609375 C 12.59375 -2.1875 12.609375 0.53125 12.65625 1.53125 C 12.609375 1.6875 12.484375 1.8125 12.25 1.9375 C 12.046875 2.015625 11.8125 2.046875 11.59375 2.046875 C 11.328125 2.046875 11.140625 2 11.0625 1.90625 C 11 1.84375 10.96875 1.546875 10.96875 1.015625 L 3.5625 1.015625 L 3.5625 1.6875 C 3.5625 1.8125 3.46875 1.9375 3.25 2.03125 C 2.765625 2.1875 2.40625 2.203125 2.171875 2.078125 C 2.0625 2.015625 2 1.90625 2 1.765625 C 2.078125 -0.578125 2.09375 -3.859375 2.03125 -8.015625 C 2.046875 -8.0625 2.0625 -8.078125 2.125 -8.078125 L 2.21875 -8.046875 L 3.6875 -7.296875 L 5.1875 -7.296875 C 5.1875 -7.625 5.15625 -8.359375 5.09375 -9.5 C 3.015625 -9.5 1.75 -9.484375 1.34375 -9.453125 L 0.90625 -9.875 L 1.890625 -9.78125 L 11.484375 -9.78125 C 12.0625 -10.53125 12.390625 -10.90625 12.484375 -10.90625 C 12.5625 -10.890625 12.671875 -10.828125 12.828125 -10.6875 C 13.5625 -10.109375 13.9375 -9.75 13.9375 -9.59375 C 13.921875 -9.53125 13.890625 -9.5 13.8125 -9.5 Z M 3.5625 0.75 L 10.96875 0.75 L 10.96875 -1.234375 L 3.5625 -1.234375 Z M 3.5625 -1.515625 L 10.96875 -1.515625 L 10.96875 -7 L 9.015625 -7 C 9 -5.5 9.03125 -4.71875 9.09375 -4.65625 C 9.140625 -4.59375 9.234375 -4.5625 9.390625 -4.5625 C 9.46875 -4.578125 9.515625 -4.578125 9.546875 -4.578125 C 9.734375 -4.625 9.90625 -4.640625 10.046875 -4.65625 C 10.1875 -4.640625 10.3125 -4.546875 10.4375 -4.359375 C 10.609375 -4.140625 10.6875 -3.90625 10.6875 -3.671875 C 10.671875 -3.390625 10.5 -3.21875 10.171875 -3.171875 C 9.90625 -3.109375 9.578125 -3.078125 9.21875 -3.078125 C 8.4375 -3.09375 7.9375 -3.21875 7.71875 -3.484375 C 7.625 -3.625 7.578125 -3.84375 7.578125 -4.109375 L 7.578125 -7 L 6.59375 -7 C 6.546875 -6.125 6.46875 -5.515625 6.375 -5.1875 C 6 -4.0625 5.0625 -3.1875 3.5625 -2.609375 Z M 3.5625 -7 L 3.5625 -2.90625 C 3.6875 -3.015625 3.8125 -3.109375 3.9375 -3.1875 C 4.703125 -3.921875 5.125 -5.1875 5.1875 -7 Z M 6.609375 -7.296875 L 7.578125 -7.296875 L 7.578125 -9.5 L 6.953125 -9.5 C 6.890625 -9.359375 6.78125 -9.265625 6.640625 -9.203125 Z M 6.609375 -7.296875 "/>
</g>
<g id="glyph-0-10">
<path d="M 4.078125 -7.6875 L 7.015625 -7.6875 C 7.015625 -7.796875 6.984375 -8.515625 6.9375 -9.84375 C 6.890625 -10.3125 6.859375 -10.703125 6.859375 -11.0625 C 7.25 -11.0625 7.796875 -10.984375 8.5 -10.828125 C 8.578125 -10.78125 8.65625 -10.765625 8.71875 -10.765625 C 8.84375 -10.71875 8.9375 -10.6875 8.984375 -10.65625 C 9.078125 -10.609375 9.125 -10.546875 9.125 -10.46875 C 9.125 -10.421875 9.09375 -10.34375 9.015625 -10.265625 C 8.90625 -10.1875 8.8125 -10.109375 8.71875 -10.015625 C 8.6875 -9.703125 8.671875 -9.484375 8.671875 -9.328125 C 8.703125 -8.5625 8.71875 -8.03125 8.71875 -7.6875 L 11.671875 -7.6875 C 11.8125 -7.921875 11.890625 -8.0625 11.953125 -8.09375 C 12.3125 -8.625 12.5625 -8.890625 12.671875 -8.890625 C 12.75 -8.828125 12.9375 -8.703125 13.265625 -8.484375 L 13.359375 -8.40625 C 13.890625 -7.96875 14.140625 -7.6875 14.140625 -7.5625 C 14.15625 -7.453125 14.109375 -7.40625 14.03125 -7.40625 L 8.734375 -7.40625 C 8.8125 -6.015625 9.0625 -4.78125 9.4375 -3.703125 C 9.796875 -4.28125 10.140625 -5 10.453125 -5.875 C 10.5625 -6.1875 10.65625 -6.421875 10.75 -6.578125 C 10.921875 -6.578125 11.28125 -6.40625 11.828125 -6.0625 C 12.46875 -5.71875 12.78125 -5.453125 12.78125 -5.3125 C 12.765625 -5.125 12.5625 -5 12.1875 -4.90625 C 11.8125 -4.3125 11.203125 -3.390625 10.3125 -2.09375 C 10.59375 -1.6875 10.859375 -1.34375 11.125 -1.078125 C 11.875 -0.375 12.453125 -0.03125 12.84375 -0.03125 C 13 -0.046875 13.375 -0.484375 13.984375 -1.328125 L 14.1875 -1.6875 C 14.234375 -1.71875 14.265625 -1.734375 14.296875 -1.734375 C 14.359375 -1.734375 14.390625 -1.703125 14.390625 -1.65625 L 14.015625 -0.203125 C 13.96875 -0.046875 14.0625 0.5 14.328125 1.40625 C 14.3125 1.59375 14.25 1.75 14.109375 1.90625 C 13.921875 2.078125 13.6875 2.171875 13.390625 2.171875 C 12.9375 2.15625 12.375 1.984375 11.765625 1.671875 C 11.421875 1.46875 10.96875 1.15625 10.4375 0.71875 C 9.875 0.203125 9.421875 -0.28125 9.109375 -0.75 C 8.890625 -0.578125 8.71875 -0.4375 8.546875 -0.28125 C 6.828125 0.984375 4.96875 1.734375 2.9375 1.953125 C 2.875 1.9375 2.84375 1.921875 2.84375 1.890625 C 2.84375 1.8125 2.921875 1.75 3.09375 1.71875 C 3.203125 1.6875 3.328125 1.640625 3.46875 1.59375 C 5.28125 0.984375 6.890625 -0.21875 8.3125 -2.046875 C 7.6875 -3.515625 7.265625 -5.296875 7.046875 -7.40625 L 3.9375 -7.40625 L 3.890625 -3.90625 C 4.28125 -3.921875 4.6875 -3.921875 5.078125 -3.921875 C 5.578125 -4.625 5.875 -4.984375 6 -4.984375 C 6.0625 -4.96875 6.1875 -4.875 6.40625 -4.6875 C 7.015625 -4.203125 7.3125 -3.890625 7.3125 -3.71875 C 7.3125 -3.640625 7.28125 -3.609375 7.21875 -3.609375 L 3.890625 -3.609375 C 3.875 -3.53125 3.875 -3.4375 3.875 -3.328125 C 3.734375 -1.8125 3.4375 -0.6875 2.96875 0.078125 C 2.765625 0.359375 2.515625 0.65625 2.25 0.9375 L 0.71875 2.015625 C 0.671875 2.015625 0.640625 1.984375 0.640625 1.921875 C 0.84375 1.609375 1 1.390625 1.125 1.28125 C 1.984375 0.125 2.28125 -2.875 2.03125 -7.734375 C 2 -8.015625 1.984375 -8.28125 1.96875 -8.53125 C 2.0625 -8.53125 2.78125 -8.25 4.078125 -7.6875 Z M 9.453125 -10.3125 C 10.25 -10.3125 10.8125 -10.1875 11.140625 -9.921875 C 11.484375 -9.625 11.671875 -9.296875 11.671875 -8.921875 C 11.65625 -8.625 11.53125 -8.375 11.3125 -8.15625 C 11.078125 -7.96875 10.84375 -7.875 10.59375 -7.875 C 10.328125 -7.890625 10.140625 -7.9375 10.015625 -8.046875 C 9.859375 -8.203125 9.765625 -8.515625 9.765625 -8.953125 C 9.71875 -9.3125 9.578125 -9.65625 9.359375 -9.96875 C 9.21875 -10.078125 9.15625 -10.171875 9.15625 -10.234375 C 9.171875 -10.296875 9.25 -10.3125 9.453125 -10.3125 Z M 9.453125 -10.3125 "/>
</g>
<g id="glyph-0-11">
<path d="M 2.09375 -8.453125 L 11.625 -8.453125 C 12.296875 -9.375 12.6875 -9.828125 12.78125 -9.828125 C 12.859375 -9.78125 12.921875 -9.75 12.96875 -9.703125 C 13.171875 -9.5625 13.453125 -9.328125 13.796875 -9.046875 C 14.203125 -8.625 14.421875 -8.390625 14.421875 -8.328125 C 14.421875 -8.21875 14.34375 -8.171875 14.1875 -8.171875 L 7.21875 -8.171875 C 7.5 -8.03125 7.6875 -7.9375 7.8125 -7.90625 C 8.15625 -7.71875 8.34375 -7.59375 8.34375 -7.484375 C 8.328125 -7.40625 8.25 -7.34375 8.109375 -7.3125 C 7.984375 -7.3125 7.65625 -7.09375 7.140625 -6.71875 C 6.890625 -6.546875 6.640625 -6.34375 6.421875 -6.140625 C 5.953125 -5.765625 5.46875 -5.40625 5.015625 -5.078125 L 8.078125 -5.03125 C 8.578125 -5.609375 8.90625 -6.03125 9.0625 -6.28125 C 9.21875 -6.65625 9.375 -6.953125 9.515625 -7.171875 C 9.5625 -7.1875 9.578125 -7.1875 9.609375 -7.1875 L 9.625 -7.1875 C 10.640625 -6.84375 11.3125 -6.515625 11.625 -6.1875 C 11.703125 -6.125 11.734375 -6.0625 11.734375 -6.03125 C 11.734375 -5.953125 11.65625 -5.890625 11.5 -5.828125 C 11.40625 -5.796875 11.265625 -5.78125 11.078125 -5.765625 L 10.375 -5.0625 C 9.046875 -3.75 7.546875 -2.625 5.890625 -1.65625 C 4.921875 -1.15625 3.546875 -0.625 1.75 -0.078125 C 1.734375 -0.0625 1.703125 -0.0625 1.6875 -0.0625 C 1.609375 -0.078125 1.5625 -0.109375 1.5625 -0.171875 C 1.578125 -0.25 1.78125 -0.359375 2.15625 -0.5 C 4.1875 -1.4375 5.90625 -2.703125 7.3125 -4.265625 C 5.703125 -4.046875 4.609375 -3.890625 4.046875 -3.765625 C 3.703125 -3.671875 3.53125 -3.625 3.5 -3.625 C 3.46875 -3.640625 3.4375 -3.671875 3.40625 -3.75 C 3.296875 -4 3.21875 -4.25 3.15625 -4.46875 C 2.953125 -5.03125 2.9375 -5.296875 3.125 -5.296875 C 4.15625 -5.484375 5.125 -6.453125 6.046875 -8.171875 C 3.203125 -8.171875 1.5 -8.15625 0.9375 -8.125 C 0.84375 -8.265625 0.75 -8.390625 0.65625 -8.515625 Z M 11.03125 -4.53125 C 11.0625 -4.625 11.109375 -4.6875 11.15625 -4.75 C 11.1875 -4.765625 11.703125 -4.53125 12.703125 -4.0625 C 13.125 -3.8125 13.328125 -3.640625 13.328125 -3.5625 C 13.328125 -3.421875 13.125 -3.328125 12.71875 -3.296875 C 12.546875 -3.171875 12.40625 -3.046875 12.3125 -2.921875 L 9.828125 -0.671875 C 10.828125 -0.65625 11.609375 -0.546875 12.171875 -0.3125 C 12.640625 -0.09375 12.96875 0.203125 13.171875 0.578125 C 13.28125 0.78125 13.328125 1 13.328125 1.234375 C 13.3125 1.96875 12.9375 2.34375 12.1875 2.34375 C 11.625 2.328125 11.3125 2.0625 11.25 1.5625 C 10.90625 0.515625 10.3125 -0.15625 9.453125 -0.40625 C 8.71875 0.046875 7.71875 0.5625 6.46875 1.109375 C 4.859375 1.734375 3.109375 2.0625 1.234375 2.0625 C 1.125 2.0625 1.0625 2.03125 1.0625 1.953125 C 1.0625 1.859375 1.328125 1.78125 1.859375 1.71875 C 4.1875 1.3125 6.359375 0.234375 8.359375 -1.5 C 8.453125 -1.609375 8.5625 -1.703125 8.6875 -1.796875 C 9.453125 -2.5625 10.234375 -3.46875 11.03125 -4.53125 Z M 5.828125 -11.484375 C 6.59375 -11.46875 7.28125 -11.28125 7.859375 -10.90625 C 8.328125 -10.59375 8.546875 -10.171875 8.546875 -9.671875 C 8.53125 -9.265625 8.421875 -8.984375 8.1875 -8.8125 C 8 -8.640625 7.734375 -8.546875 7.421875 -8.546875 C 6.984375 -8.5625 6.703125 -8.734375 6.5625 -9.03125 C 6.5 -9.125 6.46875 -9.34375 6.453125 -9.6875 C 6.421875 -10.125 6.3125 -10.484375 6.140625 -10.765625 C 6.03125 -10.984375 5.90625 -11.109375 5.765625 -11.1875 C 5.671875 -11.28125 5.625 -11.34375 5.625 -11.375 C 5.640625 -11.4375 5.703125 -11.484375 5.828125 -11.484375 Z M 5.828125 -11.484375 "/>
</g>
<g id="glyph-1-0">
<path d="M 2.546875 -2.90625 L 2.484375 -2.6875 C 2.40625 -2.375 2.203125 -1.953125 1.90625 -1.4375 C 1.609375 -0.9375 1.328125 -0.515625 1.046875 -0.203125 C 0.78125 0.109375 0.53125 0.390625 0.296875 0.625 L 0.359375 0.71875 C 1.015625 0.1875 1.5 -0.25 1.765625 -0.609375 C 2.046875 -0.96875 2.453125 -1.546875 3.015625 -2.328125 L 3.1875 -2.359375 C 3.265625 -2.390625 3.296875 -2.40625 3.3125 -2.4375 C 3.3125 -2.453125 3.28125 -2.484375 3.1875 -2.546875 Z M 0.390625 -3.765625 L 0.734375 -3.453125 L 0.796875 -3.53125 C 0.859375 -3.5625 1 -3.59375 1.234375 -3.59375 L 6.96875 -3.59375 C 7.078125 -3.59375 7.140625 -3.59375 7.140625 -3.625 C 7.15625 -3.640625 7.125 -3.6875 7.09375 -3.734375 L 6.53125 -4.25 L 6.125 -3.75 L 0.859375 -3.75 Z M 2.8125 -5.625 L 2.78125 -5.546875 C 2.984375 -5.390625 3.15625 -5.21875 3.265625 -5.046875 C 3.375 -4.875 3.46875 -4.71875 3.515625 -4.609375 C 3.5625 -4.5 3.578125 -4.390625 3.609375 -4.296875 C 3.625 -4.1875 3.640625 -4.125 3.671875 -4.09375 C 3.6875 -4.078125 3.734375 -4.046875 3.765625 -4.046875 C 3.859375 -4.015625 4 -4.09375 4.15625 -4.296875 C 4.3125 -4.484375 4.25 -4.71875 3.9375 -4.984375 C 3.625 -5.25 3.25 -5.46875 2.8125 -5.625 Z M 4.1875 -2.6875 C 4.5625 -2.375 4.890625 -2.046875 5.1875 -1.703125 C 5.46875 -1.375 5.703125 -1.015625 5.859375 -0.640625 C 6.015625 -0.25 6.140625 0.015625 6.1875 0.1875 C 6.265625 0.34375 6.3125 0.4375 6.34375 0.453125 C 6.375 0.484375 6.40625 0.5 6.4375 0.5 C 6.515625 0.5 6.578125 0.453125 6.640625 0.328125 C 6.6875 0.1875 6.71875 0.078125 6.71875 -0.03125 C 6.71875 -0.140625 6.703125 -0.234375 6.671875 -0.328125 C 6.640625 -0.421875 6.53125 -0.59375 6.328125 -0.859375 C 6.125 -1.109375 5.90625 -1.375 5.640625 -1.65625 C 5.390625 -1.921875 4.921875 -2.296875 4.265625 -2.765625 Z M 4.1875 -2.6875 "/>
</g>
<g id="glyph-1-1">
<path d="M 0.21875 -1.65625 L 0.1875 -1.578125 C 0.5 -1.453125 0.6875 -1.328125 0.765625 -1.21875 C 0.8125 -1.15625 0.84375 -1.0625 0.84375 -0.953125 C 0.828125 -0.859375 0.828125 -0.71875 0.796875 -0.5625 C 0.78125 -0.375 0.75 -0.265625 0.75 -0.203125 C 0.6875 -0.015625 0.65625 0.109375 0.65625 0.1875 C 0.671875 0.25 0.703125 0.3125 0.78125 0.390625 C 0.859375 0.46875 0.953125 0.515625 1.09375 0.515625 C 1.1875 0.53125 1.265625 0.5 1.3125 0.453125 C 1.375 0.390625 1.390625 0.3125 1.375 0.203125 C 1.359375 0.109375 1.34375 -0.015625 1.3125 -0.1875 C 1.296875 -0.359375 1.265625 -0.5 1.265625 -0.625 C 1.25 -0.78125 1.25 -0.9375 1.265625 -1.09375 C 1.28125 -1.234375 1.3125 -1.4375 1.40625 -1.6875 C 1.484375 -1.953125 1.625 -2.3125 1.796875 -2.78125 C 2 -3.234375 2.21875 -3.765625 2.453125 -4.359375 L 2.375 -4.421875 L 1.71875 -3.140625 C 1.625 -2.96875 1.484375 -2.703125 1.296875 -2.359375 C 1.09375 -2 0.96875 -1.796875 0.90625 -1.75 C 0.84375 -1.6875 0.765625 -1.65625 0.6875 -1.640625 C 0.59375 -1.609375 0.4375 -1.609375 0.21875 -1.65625 Z M 0.46875 -5.0625 L 0.4375 -5 C 0.609375 -4.8125 0.734375 -4.65625 0.796875 -4.53125 C 0.859375 -4.421875 0.90625 -4.3125 0.9375 -4.203125 L 1.078125 -3.75 C 1.09375 -3.6875 1.125 -3.640625 1.140625 -3.625 C 1.1875 -3.59375 1.234375 -3.59375 1.296875 -3.59375 C 1.34375 -3.609375 1.40625 -3.65625 1.46875 -3.734375 C 1.53125 -3.8125 1.5625 -3.90625 1.5625 -4.015625 C 1.578125 -4.140625 1.546875 -4.25 1.484375 -4.328125 C 1.421875 -4.421875 1.3125 -4.53125 1.109375 -4.671875 C 0.9375 -4.796875 0.796875 -4.875 0.734375 -4.921875 C 0.671875 -4.953125 0.578125 -5 0.46875 -5.0625 Z M 2.53125 -4.21875 L 2.578125 -3.46875 L 2.578125 -1.75 L 2.53125 -0.8125 C 2.609375 -0.8125 2.671875 -0.84375 2.78125 -0.890625 C 2.875 -0.921875 2.921875 -0.953125 2.9375 -0.96875 C 2.953125 -0.984375 2.984375 -1 3 -1.03125 L 3 -1.65625 L 4.34375 -1.65625 L 4.34375 0.265625 L 4.3125 1.3125 C 4.375 1.3125 4.46875 1.28125 4.609375 1.21875 C 4.71875 1.15625 4.8125 1.125 4.84375 1.109375 L 4.8125 0.234375 L 4.8125 -1.65625 L 6.078125 -1.65625 L 6.078125 -0.96875 C 6.296875 -1.0625 6.4375 -1.109375 6.46875 -1.140625 C 6.515625 -1.171875 6.546875 -1.203125 6.578125 -1.234375 L 6.53125 -1.875 L 6.53125 -3.5625 L 6.75 -3.734375 C 6.78125 -3.75 6.796875 -3.765625 6.8125 -3.78125 C 6.8125 -3.796875 6.765625 -3.84375 6.671875 -3.90625 L 6.265625 -4.203125 L 6 -3.859375 L 4.8125 -3.859375 L 4.8125 -5.25 L 5.03125 -5.4375 C 5.0625 -5.453125 5.09375 -5.46875 5.078125 -5.5 C 5.078125 -5.515625 5.0625 -5.53125 5.015625 -5.546875 L 4.3125 -5.78125 L 4.34375 -4.90625 L 4.34375 -3.859375 L 3 -3.859375 Z M 3 -1.828125 L 3 -3.671875 L 4.34375 -3.671875 L 4.34375 -1.828125 Z M 4.8125 -1.828125 L 4.8125 -3.671875 L 6.078125 -3.671875 L 6.078125 -1.828125 Z M 4.8125 -1.828125 "/>
</g>
<g id="glyph-1-2">
<path d="M 1.484375 -3.46875 C 1.484375 -3.25 1.65625 -3.078125 1.875 -3.078125 C 2.09375 -3.078125 2.265625 -3.25 2.265625 -3.46875 C 2.265625 -3.6875 2.09375 -3.875 1.875 -3.875 C 1.65625 -3.875 1.484375 -3.6875 1.484375 -3.46875 Z M 1.484375 -1.03125 C 1.484375 -0.8125 1.65625 -0.625 1.875 -0.625 C 2.09375 -0.625 2.265625 -0.8125 2.265625 -1.03125 C 2.265625 -1.25 2.09375 -1.421875 1.875 -1.421875 C 1.65625 -1.421875 1.484375 -1.25 1.484375 -1.03125 Z M 1.484375 -1.03125 "/>
</g>
<g id="glyph-1-3">
<path d="M 2.015625 -2 L 1.796875 -1.546875 C 1.703125 -1.359375 1.546875 -1.125 1.328125 -0.828125 C 1.125 -0.515625 0.953125 -0.296875 0.84375 -0.15625 C 0.71875 0 0.484375 0.265625 0.125 0.65625 L 0.1875 0.75 L 0.328125 0.625 L 0.59375 0.390625 C 0.703125 0.296875 0.890625 0.109375 1.140625 -0.15625 C 1.390625 -0.421875 1.59375 -0.65625 1.75 -0.875 C 1.90625 -1.078125 2.078125 -1.328125 2.265625 -1.609375 L 2.4375 -1.296875 C 2.515625 -1.171875 2.609375 -0.953125 2.734375 -0.625 C 2.859375 -0.296875 2.921875 -0.09375 2.953125 0 C 2.96875 0.109375 3 0.171875 3.015625 0.203125 C 3.046875 0.25 3.078125 0.28125 3.109375 0.28125 C 3.15625 0.296875 3.1875 0.28125 3.234375 0.234375 C 3.28125 0.203125 3.328125 0.15625 3.359375 0.078125 C 3.390625 0.015625 3.40625 -0.046875 3.421875 -0.125 C 3.4375 -0.21875 3.4375 -0.3125 3.40625 -0.40625 C 3.390625 -0.484375 3.34375 -0.609375 3.265625 -0.78125 C 3.1875 -0.9375 3.09375 -1.109375 3 -1.28125 C 2.890625 -1.453125 2.734375 -1.6875 2.5 -2.015625 L 2.796875 -2.765625 C 2.84375 -2.875 3 -3.390625 3.296875 -4.296875 L 3.5 -4.40625 L 3.640625 -4.484375 C 3.65625 -4.484375 3.609375 -4.5 3.53125 -4.578125 L 3.015625 -5.015625 L 2.703125 -4.640625 L 0.6875 -4.640625 L 0.328125 -4.671875 L 0.5625 -4.34375 C 0.75 -4.4375 1 -4.46875 1.296875 -4.46875 L 2.8125 -4.46875 L 2.734375 -4.109375 C 2.71875 -4.046875 2.6875 -3.90625 2.625 -3.671875 C 2.5625 -3.4375 2.5 -3.21875 2.4375 -3.046875 C 2.390625 -2.875 2.296875 -2.640625 2.1875 -2.390625 C 1.875 -2.78125 1.625 -3.0625 1.46875 -3.25 C 1.3125 -3.4375 1.078125 -3.6875 0.765625 -4.03125 L 0.671875 -3.953125 C 0.84375 -3.75 1.078125 -3.421875 1.390625 -2.96875 C 1.6875 -2.515625 1.90625 -2.203125 2.015625 -2 Z M 3.515625 -3.765625 L 3.75 -3.484375 L 3.875 -3.53125 C 3.9375 -3.5625 4.09375 -3.5625 4.328125 -3.5625 L 5.53125 -3.5625 L 5.53125 0.234375 C 5.53125 0.328125 5.515625 0.375 5.46875 0.421875 C 5.4375 0.46875 5.3125 0.5 5.125 0.5 C 4.9375 0.515625 4.671875 0.46875 4.3125 0.375 L 4.265625 0.5 C 4.59375 0.59375 4.796875 0.671875 4.890625 0.71875 C 4.984375 0.765625 5.046875 0.8125 5.09375 0.875 C 5.140625 0.9375 5.203125 1.046875 5.25 1.203125 C 5.40625 1.140625 5.53125 1.078125 5.65625 1 C 5.78125 0.9375 5.859375 0.859375 5.921875 0.765625 C 5.984375 0.6875 6.015625 0.578125 6.015625 0.4375 L 6.015625 -3.5625 L 7.1875 -3.5625 C 7.28125 -3.5625 7.3125 -3.578125 7.328125 -3.609375 C 7.34375 -3.625 7.3125 -3.671875 7.265625 -3.734375 L 6.75 -4.25 L 6.34375 -3.75 L 6.015625 -3.75 L 6.015625 -5.140625 L 6.234375 -5.296875 C 6.296875 -5.359375 6.34375 -5.390625 6.34375 -5.421875 C 6.34375 -5.4375 6.296875 -5.46875 6.1875 -5.515625 L 5.484375 -5.8125 L 5.53125 -4.796875 L 5.53125 -3.75 L 3.90625 -3.75 Z M 3.71875 -2.75 L 3.890625 -2.4375 C 3.9375 -2.359375 3.96875 -2.25 4 -2.125 C 4.046875 -2 4.078125 -1.875 4.078125 -1.765625 L 4.109375 -1.203125 C 4.109375 -1.125 4.125 -1.078125 4.15625 -1.0625 C 4.171875 -1.03125 4.203125 -1.03125 4.234375 -1.03125 C 4.25 -1.015625 4.296875 -1.03125 4.375 -1.0625 C 4.46875 -1.09375 4.515625 -1.15625 4.578125 -1.265625 C 4.625 -1.34375 4.640625 -1.453125 4.65625 -1.53125 C 4.65625 -1.6875 4.59375 -1.84375 4.484375 -2.015625 C 4.375 -2.171875 4.296875 -2.296875 4.21875 -2.40625 C 4.140625 -2.484375 4 -2.625 3.8125 -2.8125 Z M 3.71875 -2.75 "/>
</g>
<g id="glyph-1-4">
<path d="M 0.171875 0.46875 L 0.4375 0.75 L 0.53125 0.703125 C 0.578125 0.671875 0.71875 0.671875 0.9375 0.671875 L 7.078125 0.671875 C 7.140625 0.671875 7.1875 0.65625 7.1875 0.640625 C 7.203125 0.640625 7.171875 0.59375 7.109375 0.53125 L 6.546875 -0.015625 L 6.09375 0.484375 L 4.078125 0.484375 L 4.46875 -0.5 L 5.0625 -2.03125 C 5.1875 -2.390625 5.265625 -2.609375 5.296875 -2.671875 C 5.328125 -2.75 5.359375 -2.8125 5.390625 -2.859375 L 5.59375 -2.9375 C 5.671875 -2.953125 5.71875 -2.984375 5.734375 -3 C 5.734375 -3.015625 5.6875 -3.046875 5.609375 -3.09375 L 4.875 -3.515625 L 4.828125 -3.171875 C 4.78125 -2.875 4.71875 -2.609375 4.671875 -2.34375 C 4.609375 -2.09375 4.515625 -1.71875 4.375 -1.234375 C 4.234375 -0.734375 4.125 -0.375 4.046875 -0.171875 C 3.984375 0.0625 3.90625 0.265625 3.84375 0.484375 L 0.703125 0.484375 Z M 0.640625 -4.09375 L 0.890625 -3.796875 C 1.03125 -3.859375 1.1875 -3.890625 1.34375 -3.890625 L 6.578125 -3.890625 C 6.65625 -3.890625 6.703125 -3.90625 6.703125 -3.921875 C 6.703125 -3.9375 6.6875 -3.953125 6.640625 -4 L 6.0625 -4.546875 L 5.671875 -4.078125 L 0.984375 -4.0625 Z M 1.78125 -3.1875 C 1.953125 -2.875 2.09375 -2.546875 2.234375 -2.21875 C 2.359375 -1.875 2.4375 -1.625 2.453125 -1.453125 C 2.484375 -1.296875 2.515625 -1.09375 2.53125 -0.890625 C 2.5625 -0.65625 2.5625 -0.5 2.5625 -0.390625 C 2.578125 -0.265625 2.59375 -0.203125 2.625 -0.171875 C 2.65625 -0.125 2.703125 -0.109375 2.734375 -0.109375 C 2.8125 -0.09375 2.875 -0.125 2.96875 -0.21875 C 3.046875 -0.3125 3.109375 -0.4375 3.125 -0.578125 C 3.15625 -0.734375 3.140625 -0.890625 3.109375 -1.046875 C 3.0625 -1.203125 2.984375 -1.40625 2.84375 -1.6875 C 2.71875 -1.9375 2.5625 -2.21875 2.390625 -2.5 C 2.203125 -2.78125 2.03125 -3.03125 1.875 -3.234375 Z M 2.9375 -5.609375 C 3.125 -5.4375 3.265625 -5.28125 3.359375 -5.140625 C 3.453125 -5 3.515625 -4.84375 3.5625 -4.6875 L 3.625 -4.46875 C 3.640625 -4.40625 3.65625 -4.359375 3.65625 -4.34375 C 3.671875 -4.3125 3.6875 -4.3125 3.6875 -4.296875 C 3.71875 -4.265625 3.78125 -4.265625 3.875 -4.296875 C 3.96875 -4.328125 4.046875 -4.421875 4.09375 -4.546875 C 4.125 -4.625 4.140625 -4.71875 4.125 -4.84375 C 4.09375 -4.953125 4.046875 -5.046875 3.953125 -5.125 C 3.875 -5.21875 3.71875 -5.3125 3.515625 -5.421875 C 3.296875 -5.53125 3.125 -5.609375 2.984375 -5.65625 Z M 2.9375 -5.609375 "/>
</g>
<g id="glyph-1-5">
<path d="M 1.234375 -0.953125 C 1.421875 -0.953125 1.671875 -0.875 2 -0.71875 C 2.40625 -0.484375 2.609375 -0.203125 2.609375 0.109375 C 2.59375 0.375 2.484375 0.515625 2.296875 0.5 C 2.140625 0.484375 2.046875 0.390625 2 0.265625 C 1.96875 0.1875 1.9375 0.09375 1.90625 -0.015625 C 1.8125 -0.328125 1.609375 -0.578125 1.28125 -0.765625 C 1.1875 -0.8125 1.140625 -0.859375 1.140625 -0.890625 C 1.140625 -0.9375 1.171875 -0.953125 1.234375 -0.953125 Z M 1.234375 -0.953125 "/>
</g>
<g id="glyph-1-6">
<path d="M 0.0625 -2.546875 L 0.40625 -2.21875 C 0.734375 -2.296875 1.09375 -2.34375 1.5 -2.34375 L 3.375 -2.34375 L 3.375 0.5625 L 1.71875 0.5625 L 1.71875 -1.21875 L 1.921875 -1.375 C 1.96875 -1.390625 1.984375 -1.421875 1.984375 -1.4375 C 1.96875 -1.453125 1.953125 -1.46875 1.90625 -1.484375 L 1.265625 -1.71875 L 1.296875 -0.796875 L 1.296875 0.4375 L 1.046875 0.609375 L 1.53125 1.078125 L 1.828125 0.75 L 5.6875 0.75 L 5.6875 1.328125 C 5.890625 1.25 6.0625 1.171875 6.171875 1.109375 L 6.125 0.234375 L 6.125 -1.25 L 6.3125 -1.375 C 6.375 -1.40625 6.390625 -1.4375 6.390625 -1.453125 C 6.390625 -1.484375 6.359375 -1.5 6.296875 -1.53125 L 5.625 -1.78125 L 5.6875 -0.796875 L 5.6875 0.5625 L 3.84375 0.5625 L 3.84375 -2.34375 L 7.1875 -2.34375 C 7.25 -2.34375 7.296875 -2.359375 7.3125 -2.390625 C 7.328125 -2.421875 7.3125 -2.453125 7.25 -2.515625 L 6.71875 -3.015625 L 6.3125 -2.53125 L 3.84375 -2.53125 L 3.84375 -4.03125 L 6.328125 -4.03125 C 6.375 -4.03125 6.390625 -4.046875 6.40625 -4.0625 C 6.40625 -4.09375 6.40625 -4.125 6.375 -4.140625 L 5.8125 -4.65625 L 5.4375 -4.21875 L 3.84375 -4.21875 L 3.84375 -5.3125 L 4.046875 -5.421875 C 4.09375 -5.4375 4.109375 -5.453125 4.109375 -5.46875 C 4.109375 -5.5 4.078125 -5.515625 4.015625 -5.546875 L 3.328125 -5.828125 L 3.375 -4.765625 L 3.375 -4.21875 L 0.8125 -4.21875 L 1.125 -3.9375 C 1.34375 -3.96875 1.53125 -3.984375 1.6875 -4 C 1.84375 -4.015625 2.078125 -4.015625 2.390625 -4.03125 L 3.375 -4.03125 L 3.375 -2.53125 L 0.84375 -2.53125 Z M 0.0625 -2.546875 "/>
</g>
<g id="glyph-1-7">
<path d="M 1.703125 -4.125 L 1.625 -3.90625 C 1.546875 -3.71875 1.4375 -3.46875 1.265625 -3.1875 C 1.09375 -2.890625 0.9375 -2.640625 0.8125 -2.453125 C 0.6875 -2.265625 0.515625 -2.015625 0.28125 -1.703125 L 0.359375 -1.640625 C 0.5625 -1.828125 0.78125 -2.046875 1.015625 -2.296875 C 1.25 -2.53125 1.421875 -2.734375 1.53125 -2.890625 C 1.65625 -3.046875 1.828125 -3.265625 2.03125 -3.5625 L 2.25 -3.625 C 2.3125 -3.65625 2.34375 -3.671875 2.34375 -3.6875 C 2.34375 -3.703125 2.3125 -3.71875 2.265625 -3.75 Z M 3.484375 -0.21875 C 2.9375 0.171875 2.40625 0.4375 1.890625 0.578125 C 1.375 0.71875 0.875 0.84375 0.375 0.953125 L 0.375 1.078125 C 1.28125 0.96875 1.96875 0.828125 2.453125 0.640625 C 2.96875 0.453125 3.390625 0.25 3.765625 0.046875 C 4.140625 0.265625 4.53125 0.4375 4.953125 0.59375 C 5.390625 0.75 5.90625 0.875 6.515625 0.984375 L 6.578125 0.78125 C 6.609375 0.65625 6.8125 0.5625 7.1875 0.5 L 7.1875 0.40625 C 6.734375 0.421875 6.28125 0.390625 5.828125 0.34375 C 5.40625 0.28125 5.046875 0.203125 4.78125 0.109375 C 4.515625 0 4.296875 -0.09375 4.125 -0.1875 C 4.65625 -0.703125 5.109375 -1.1875 5.5 -1.65625 L 5.71875 -1.75 C 5.796875 -1.78125 5.828125 -1.796875 5.828125 -1.8125 C 5.84375 -1.828125 5.8125 -1.859375 5.734375 -1.90625 L 5.25 -2.3125 L 4.90625 -1.96875 L 2.28125 -1.96875 L 1.578125 -1.984375 L 1.921875 -1.6875 C 2.0625 -1.75 2.21875 -1.796875 2.359375 -1.796875 L 2.515625 -1.796875 C 2.65625 -1.421875 2.765625 -1.171875 2.828125 -1.046875 C 2.890625 -0.921875 2.984375 -0.78125 3.09375 -0.640625 C 3.203125 -0.5 3.34375 -0.359375 3.484375 -0.21875 Z M 3.75 -0.421875 C 3.421875 -0.65625 3.1875 -0.875 3.0625 -1.078125 C 2.921875 -1.296875 2.84375 -1.4375 2.8125 -1.5 C 2.78125 -1.578125 2.734375 -1.6875 2.703125 -1.796875 L 4.90625 -1.796875 C 4.625 -1.328125 4.390625 -1.015625 4.203125 -0.84375 C 4.03125 -0.671875 3.875 -0.546875 3.75 -0.421875 Z M 0.46875 -4.703125 L 0.796875 -4.375 L 0.953125 -4.453125 C 1.03125 -4.5 1.21875 -4.515625 1.515625 -4.515625 L 2.796875 -4.515625 L 2.796875 -3.015625 L 2.75 -2.171875 C 2.953125 -2.203125 3.125 -2.265625 3.28125 -2.34375 L 3.25 -3.03125 L 3.25 -4.515625 L 4.375 -4.515625 L 4.375 -3.09375 L 4.3125 -2.28125 C 4.5625 -2.359375 4.703125 -2.40625 4.734375 -2.4375 C 4.78125 -2.453125 4.8125 -2.484375 4.859375 -2.515625 L 4.8125 -3.1875 L 4.8125 -4.515625 L 6.96875 -4.515625 C 7.015625 -4.515625 7.03125 -4.53125 7.03125 -4.546875 C 7.03125 -4.5625 7.015625 -4.578125 7 -4.609375 L 6.421875 -5.15625 L 6.078125 -4.6875 L 1.125 -4.6875 Z M 3.25 -5.734375 C 3.390625 -5.609375 3.484375 -5.484375 3.53125 -5.375 C 3.578125 -5.25 3.609375 -5.15625 3.640625 -5.0625 C 3.65625 -4.96875 3.6875 -4.890625 3.703125 -4.84375 C 3.71875 -4.796875 3.734375 -4.765625 3.765625 -4.75 C 3.8125 -4.71875 3.859375 -4.734375 3.921875 -4.765625 C 3.96875 -4.8125 4.015625 -4.859375 4.046875 -4.90625 C 4.109375 -5.015625 4.140625 -5.109375 4.125 -5.1875 C 4.125 -5.265625 4.046875 -5.375 3.90625 -5.484375 C 3.765625 -5.59375 3.5625 -5.703125 3.296875 -5.796875 Z M 5.21875 -3.828125 C 5.4375 -3.6875 5.625 -3.546875 5.8125 -3.375 C 5.984375 -3.21875 6.125 -3.078125 6.203125 -2.953125 C 6.296875 -2.8125 6.390625 -2.65625 6.5 -2.5 C 6.5625 -2.375 6.625 -2.296875 6.671875 -2.3125 C 6.71875 -2.3125 6.765625 -2.328125 6.8125 -2.359375 C 6.84375 -2.40625 6.875 -2.46875 6.90625 -2.578125 C 6.921875 -2.6875 6.9375 -2.78125 6.921875 -2.84375 C 6.890625 -2.9375 6.859375 -3 6.8125 -3.0625 C 6.75 -3.125 6.640625 -3.203125 6.46875 -3.3125 C 6.296875 -3.421875 6.140625 -3.515625 6 -3.578125 C 5.84375 -3.65625 5.609375 -3.765625 5.265625 -3.890625 Z M 5.21875 -3.828125 "/>
</g>
<g id="glyph-1-8">
<path d="M 0.25 -3.15625 L 0.484375 -2.859375 C 0.65625 -2.921875 0.84375 -2.96875 1.0625 -2.96875 L 1.8125 -2.96875 L 1.734375 -2.6875 C 1.71875 -2.609375 1.640625 -2.390625 1.46875 -2 C 1.3125 -1.625 1.171875 -1.328125 1.0625 -1.125 L 0.9375 -0.9375 C 0.875 -0.828125 0.8125 -0.75 0.765625 -0.703125 C 0.703125 -0.640625 0.609375 -0.609375 0.484375 -0.59375 L 0.75 0.015625 C 0.953125 -0.09375 1.125 -0.171875 1.25 -0.1875 C 1.375 -0.234375 2.03125 -0.40625 3.1875 -0.703125 L 3.234375 -0.421875 L 3.265625 -0.25 C 3.28125 -0.203125 3.296875 -0.1875 3.34375 -0.171875 C 3.4375 -0.140625 3.53125 -0.203125 3.609375 -0.34375 C 3.6875 -0.484375 3.734375 -0.609375 3.734375 -0.6875 C 3.734375 -0.8125 3.671875 -0.96875 3.53125 -1.1875 C 3.390625 -1.40625 3.25 -1.59375 3.078125 -1.75 C 2.90625 -1.90625 2.75 -2.0625 2.578125 -2.21875 L 2.484375 -2.15625 C 2.78125 -1.75 2.953125 -1.453125 3 -1.28125 C 3.0625 -1.109375 3.109375 -0.96875 3.140625 -0.890625 L 2.15625 -0.734375 C 2.015625 -0.703125 1.640625 -0.65625 1 -0.59375 L 1.515625 -1.40625 L 1.875 -1.984375 C 1.90625 -2.03125 2.03125 -2.1875 2.21875 -2.453125 L 2.390625 -2.578125 L 2.53125 -2.640625 C 2.546875 -2.65625 2.515625 -2.6875 2.4375 -2.734375 L 2.09375 -2.96875 L 3.890625 -2.96875 C 3.96875 -2.96875 4.015625 -2.984375 4.015625 -3 C 4.03125 -3.015625 4.015625 -3.0625 3.96875 -3.109375 L 3.421875 -3.5625 L 3.0625 -3.140625 L 0.640625 -3.140625 Z M 0.671875 -4.703125 L 0.859375 -4.40625 L 1 -4.46875 C 1.078125 -4.5 1.234375 -4.515625 1.484375 -4.515625 L 3.578125 -4.515625 C 3.671875 -4.515625 3.703125 -4.53125 3.71875 -4.546875 C 3.71875 -4.578125 3.703125 -4.59375 3.671875 -4.640625 L 3.171875 -5.125 L 2.78125 -4.6875 L 1.0625 -4.6875 Z M 4.65625 -3.59375 L 4.640625 -3.296875 C 4.625 -3.125 4.625 -2.90625 4.59375 -2.625 C 4.578125 -2.34375 4.53125 -1.96875 4.453125 -1.484375 C 4.390625 -0.984375 4.234375 -0.578125 3.984375 -0.234375 C 3.75 0.09375 3.46875 0.359375 3.140625 0.578125 C 2.796875 0.796875 2.375 1 1.84375 1.203125 L 1.875 1.3125 C 2.328125 1.171875 2.6875 1.03125 2.984375 0.921875 C 3.28125 0.78125 3.578125 0.609375 3.875 0.375 C 4.171875 0.15625 4.390625 -0.109375 4.515625 -0.40625 C 4.65625 -0.703125 4.75 -0.96875 4.8125 -1.25 C 4.875 -1.5 4.921875 -1.765625 4.96875 -2.046875 C 5 -2.3125 5.03125 -2.5625 5.046875 -2.796875 C 5.0625 -3.015625 5.0625 -3.28125 5.09375 -3.59375 L 6.25 -3.59375 L 6.25 -3.28125 C 6.25 -3.140625 6.25 -2.8125 6.234375 -2.28125 C 6.21875 -1.765625 6.203125 -1.421875 6.203125 -1.21875 L 6.171875 -0.46875 C 6.171875 -0.25 6.15625 -0.078125 6.125 0.046875 C 6.109375 0.171875 6.0625 0.265625 5.984375 0.328125 C 5.921875 0.375 5.75 0.390625 5.453125 0.375 C 5.1875 0.34375 4.921875 0.296875 4.6875 0.234375 L 4.640625 0.34375 C 5.15625 0.515625 5.453125 0.65625 5.515625 0.75 C 5.59375 0.859375 5.640625 0.96875 5.6875 1.109375 C 5.828125 1.0625 5.984375 0.984375 6.15625 0.875 C 6.3125 0.765625 6.421875 0.640625 6.5 0.5 C 6.5625 0.34375 6.59375 0.171875 6.59375 -0.015625 C 6.609375 -0.203125 6.625 -0.53125 6.625 -0.984375 L 6.6875 -2.84375 C 6.6875 -2.984375 6.6875 -3.1875 6.703125 -3.484375 L 6.9375 -3.65625 C 7 -3.703125 7.03125 -3.734375 7.03125 -3.75 C 7.03125 -3.75 7 -3.78125 6.9375 -3.828125 L 6.421875 -4.1875 L 6.09375 -3.765625 L 5.109375 -3.765625 L 5.125 -4.203125 L 5.15625 -4.71875 C 5.171875 -4.84375 5.171875 -5.03125 5.1875 -5.265625 L 5.375 -5.390625 C 5.4375 -5.4375 5.453125 -5.453125 5.453125 -5.484375 C 5.453125 -5.5 5.421875 -5.53125 5.34375 -5.5625 L 4.6875 -5.8125 L 4.703125 -5.4375 C 4.703125 -5.296875 4.703125 -5.078125 4.6875 -4.765625 C 4.6875 -4.46875 4.671875 -4.125 4.65625 -3.765625 L 3.9375 -3.765625 L 3.578125 -3.78125 L 3.8125 -3.5 C 3.953125 -3.5625 4.140625 -3.59375 4.359375 -3.59375 Z M 4.65625 -3.59375 "/>
</g>
</g>
</defs>
<path fill-rule="nonzero" fill="rgb(100%, 100%, 100%)" fill-opacity="1" d="M 9.960938 323.160156 L 9.960938 9.960938 L 351.578125 9.960938 L 351.578125 323.160156 Z M 9.960938 323.160156 "/>
<path fill="none" stroke-width="0.79701" stroke-linecap="butt" stroke-linejoin="miter" stroke="rgb(69.999695%, 69.999695%, 69.999695%)" stroke-opacity="1" stroke-miterlimit="10" d="M 119.055281 -0.00146875 C 119.055281 65.752438 65.7545 119.057125 0.00059375 119.057125 C -65.753312 119.057125 -119.058 65.752438 -119.058 -0.00146875 C -119.058 -65.755375 -65.753312 -119.056156 0.00059375 -119.056156 C 65.7545 -119.056156 119.055281 -65.755375 119.055281 -0.00146875 Z M 119.055281 -0.00146875 " transform="matrix(1, 0, 0, -1, 197.683, 162.979)"/>
<path fill-rule="nonzero" fill="rgb(0%, 0%, 0%)" fill-opacity="1" d="M 200.074219 43.921875 C 200.074219 42.601562 199.003906 41.53125 197.683594 41.53125 C 196.363281 41.53125 195.292969 42.601562 195.292969 43.921875 C 195.292969 45.242188 196.363281 46.3125 197.683594 46.3125 C 199.003906 46.3125 200.074219 45.242188 200.074219 43.921875 Z M 200.074219 43.921875 "/>
<g fill="rgb(0%, 0%, 0%)" fill-opacity="1">
<use xlink:href="#glyph-0-0" x="190.183" y="24.589"/>
</g>
<path fill-rule="nonzero" fill="rgb(0%, 0%, 0%)" fill-opacity="1" d="M 259.601562 59.871094 C 259.601562 58.550781 258.53125 57.480469 257.210938 57.480469 C 255.890625 57.480469 254.820312 58.550781 254.820312 59.871094 C 254.820312 61.195312 255.890625 62.265625 257.210938 62.265625 C 258.53125 62.265625 259.601562 61.195312 259.601562 59.871094 Z M 259.601562 59.871094 "/>
<g fill="rgb(0%, 0%, 0%)" fill-opacity="1">
<use xlink:href="#glyph-0-1" x="261.616" y="43.887"/>
</g>
<path fill-rule="nonzero" fill="rgb(0%, 0%, 0%)" fill-opacity="1" d="M 303.179688 103.449219 C 303.179688 102.128906 302.109375 101.058594 300.789062 101.058594 C 299.46875 101.058594 298.398438 102.128906 298.398438 103.449219 C 298.398438 104.769531 299.46875 105.84375 300.789062 105.84375 C 302.109375 105.84375 303.179688 104.769531 303.179688 103.449219 Z M 303.179688 103.449219 "/>
<g fill="rgb(0%, 0%, 0%)" fill-opacity="1">
<use xlink:href="#glyph-0-2" x="313.91" y="96.023"/>
</g>
<path fill-rule="nonzero" fill="rgb(0%, 0%, 0%)" fill-opacity="1" d="M 319.128906 162.980469 C 319.128906 161.660156 318.058594 160.589844 316.738281 160.589844 C 315.417969 160.589844 314.347656 161.660156 314.347656 162.980469 C 314.347656 164.300781 315.417969 165.371094 316.738281 165.371094 C 318.058594 165.371094 319.128906 164.300781 319.128906 162.980469 Z M 319.128906 162.980469 "/>
<g fill="rgb(0%, 0%, 0%)" fill-opacity="1">
<use xlink:href="#glyph-0-3" x="333.05" y="167.487"/>
</g>
<path fill-rule="nonzero" fill="rgb(0%, 0%, 0%)" fill-opacity="1" d="M 303.179688 222.507812 C 303.179688 221.1875 302.109375 220.117188 300.789062 220.117188 C 299.46875 220.117188 298.398438 221.1875 298.398438 222.507812 C 298.398438 223.828125 299.46875 224.898438 300.789062 224.898438 C 302.109375 224.898438 303.179688 223.828125 303.179688 222.507812 Z M 303.179688 222.507812 "/>
<g fill="rgb(0%, 0%, 0%)" fill-opacity="1">
<use xlink:href="#glyph-0-4" x="313.91" y="238.927"/>
</g>
<path fill-rule="nonzero" fill="rgb(0%, 0%, 0%)" fill-opacity="1" d="M 259.601562 266.085938 C 259.601562 264.765625 258.53125 263.695312 257.210938 263.695312 C 255.890625 263.695312 254.820312 264.765625 254.820312 266.085938 C 254.820312 267.40625 255.890625 268.476562 257.210938 268.476562 C 258.53125 268.476562 259.601562 267.40625 259.601562 266.085938 Z M 259.601562 266.085938 "/>
<g fill="rgb(0%, 0%, 0%)" fill-opacity="1">
<use xlink:href="#glyph-0-5" x="261.616" y="291.086"/>
</g>
<path fill-rule="nonzero" fill="rgb(0%, 0%, 0%)" fill-opacity="1" d="M 200.074219 282.035156 C 200.074219 280.714844 199.003906 279.644531 197.683594 279.644531 C 196.363281 279.644531 195.292969 280.714844 195.292969 282.035156 C 195.292969 283.355469 196.363281 284.425781 197.683594 284.425781 C 199.003906 284.425781 200.074219 283.355469 200.074219 282.035156 Z M 200.074219 282.035156 "/>
<g fill="rgb(0%, 0%, 0%)" fill-opacity="1">
<use xlink:href="#glyph-0-6" x="190.183" y="310.369"/>
</g>
<path fill-rule="nonzero" fill="rgb(0%, 0%, 0%)" fill-opacity="1" d="M 140.546875 266.085938 C 140.546875 264.765625 139.476562 263.695312 138.15625 263.695312 C 136.835938 263.695312 135.765625 264.765625 135.765625 266.085938 C 135.765625 267.40625 136.835938 268.476562 138.15625 268.476562 C 139.476562 268.476562 140.546875 267.40625 140.546875 266.085938 Z M 140.546875 266.085938 "/>
<g fill="rgb(0%, 0%, 0%)" fill-opacity="1">
<use xlink:href="#glyph-0-7" x="118.749" y="291.229"/>
</g>
<path fill-rule="nonzero" fill="rgb(0%, 0%, 0%)" fill-opacity="1" d="M 96.96875 222.507812 C 96.96875 221.1875 95.898438 220.117188 94.578125 220.117188 C 93.257812 220.117188 92.1875 221.1875 92.1875 222.507812 C 92.1875 223.828125 93.257812 224.898438 94.578125 224.898438 C 95.898438 224.898438 96.96875 223.828125 96.96875 222.507812 Z M 96.96875 222.507812 "/>
<g fill="rgb(0%, 0%, 0%)" fill-opacity="1">
<use xlink:href="#glyph-0-8" x="66.456" y="238.897"/>
</g>
<path fill-rule="nonzero" fill="rgb(0%, 0%, 0%)" fill-opacity="1" d="M 81.019531 162.980469 C 81.019531 161.660156 79.949219 160.589844 78.625 160.589844 C 77.304688 160.589844 76.234375 161.660156 76.234375 162.980469 C 76.234375 164.300781 77.304688 165.371094 78.625 165.371094 C 79.949219 165.371094 81.019531 164.300781 81.019531 162.980469 Z M 81.019531 162.980469 "/>
<g fill="rgb(0%, 0%, 0%)" fill-opacity="1">
<use xlink:href="#glyph-0-9" x="47.315" y="167.329"/>
</g>
<path fill-rule="nonzero" fill="rgb(0%, 0%, 0%)" fill-opacity="1" d="M 96.96875 103.449219 C 96.96875 102.128906 95.898438 101.058594 94.578125 101.058594 C 93.257812 101.058594 92.1875 102.128906 92.1875 103.449219 C 92.1875 104.769531 93.257812 105.84375 94.578125 105.84375 C 95.898438 105.84375 96.96875 104.769531 96.96875 103.449219 Z M 96.96875 103.449219 "/>
<g fill="rgb(0%, 0%, 0%)" fill-opacity="1">
<use xlink:href="#glyph-0-10" x="66.456" y="95.986"/>
</g>
<path fill-rule="nonzero" fill="rgb(0%, 0%, 0%)" fill-opacity="1" d="M 140.546875 59.871094 C 140.546875 58.550781 139.476562 57.480469 138.15625 57.480469 C 136.835938 57.480469 135.765625 58.550781 135.765625 59.871094 C 135.765625 61.195312 136.835938 62.265625 138.15625 62.265625 C 139.476562 62.265625 140.546875 61.195312 140.546875 59.871094 Z M 140.546875 59.871094 "/>
<g fill="rgb(0%, 0%, 0%)" fill-opacity="1">
<use xlink:href="#glyph-0-11" x="118.749" y="43.827"/>
</g>
<path fill="none" stroke-width="1.19553" stroke-linecap="butt" stroke-linejoin="miter" stroke="rgb(0%, 0%, 59.999084%)" stroke-opacity="1" stroke-miterlimit="10" d="M 0.00059375 113.830563 L 0.00059375 -113.829594 " transform="matrix(1, 0, 0, -1, 197.683, 162.979)"/>
<path fill-rule="nonzero" fill="rgb(0%, 0%, 59.999084%)" fill-opacity="1" stroke-width="1.19553" stroke-linecap="butt" stroke-linejoin="miter" stroke="rgb(0%, 0%, 59.999084%)" stroke-opacity="1" stroke-miterlimit="10" d="M 6.802278 -0.00059375 L 1.931184 1.847062 L 3.556184 -0.00059375 L 1.931184 -1.844344 Z M 6.802278 -0.00059375 " transform="matrix(0, -1, -1, 0, 197.683, 52.40384)"/>
<path fill-rule="nonzero" fill="rgb(0%, 0%, 59.999084%)" fill-opacity="1" stroke-width="1.19553" stroke-linecap="butt" stroke-linejoin="miter" stroke="rgb(0%, 0%, 59.999084%)" stroke-opacity="1" stroke-miterlimit="10" d="M 6.801309 0.00059375 L 1.930215 1.844344 L 3.555215 0.00059375 L 1.930215 -1.847062 Z M 6.801309 0.00059375 " transform="matrix(0, 1, 1, 0, 197.683, 273.55416)"/>
<path fill="none" stroke-width="1.19553" stroke-linecap="butt" stroke-linejoin="miter" stroke="rgb(0%, 0%, 59.999084%)" stroke-opacity="1" stroke-miterlimit="10" d="M 56.914656 98.580563 L -56.917375 -98.579594 " transform="matrix(1, 0, 0, -1, 197.683, 162.979)"/>
<path fill-rule="nonzero" fill="rgb(0%, 0%, 59.999084%)" fill-opacity="1" stroke-width="1.19553" stroke-linecap="butt" stroke-linejoin="miter" stroke="rgb(0%, 0%, 59.999084%)" stroke-opacity="1" stroke-miterlimit="10" d="M 6.800867 -0.0000879668 L 1.931399 1.848065 L 3.552595 0.000984583 L 1.930855 -1.846454 Z M 6.800867 -0.0000879668 " transform="matrix(0.49998, -0.86601, -0.86601, -0.49998, 252.97072, 67.2177)"/>
<path fill-rule="nonzero" fill="rgb(0%, 0%, 59.999084%)" fill-opacity="1" stroke-width="1.19553" stroke-linecap="butt" stroke-linejoin="miter" stroke="rgb(0%, 0%, 59.999084%)" stroke-opacity="1" stroke-miterlimit="10" d="M 6.799434 0.00045609 L 1.931919 1.845226 L 3.556498 0.0000987684 L 1.929422 -1.84591 Z M 6.799434 0.00045609 " transform="matrix(-0.49998, 0.86601, 0.86601, 0.49998, 142.39528, 258.7403)"/>
<path fill="none" stroke-width="1.19553" stroke-linecap="butt" stroke-linejoin="miter" stroke="rgb(0%, 0%, 59.999084%)" stroke-opacity="1" stroke-miterlimit="10" d="M 98.582625 56.9165 L -98.581437 -56.915531 " transform="matrix(1, 0, 0, -1, 197.683, 162.979)"/>
<path fill-rule="nonzero" fill="rgb(0%, 0%, 59.999084%)" fill-opacity="1" stroke-width="1.19553" stroke-linecap="butt" stroke-linejoin="miter" stroke="rgb(0%, 0%, 59.999084%)" stroke-opacity="1" stroke-miterlimit="10" d="M 6.803575 0.00065349 L 1.928227 1.845589 L 3.555303 -0.00041906 L 1.930724 -1.845547 Z M 6.803575 0.00065349 " transform="matrix(0.86601, -0.49998, -0.49998, -0.86601, 293.4443, 107.69128)"/>
<path fill-rule="nonzero" fill="rgb(0%, 0%, 59.999084%)" fill-opacity="1" stroke-width="1.19553" stroke-linecap="butt" stroke-linejoin="miter" stroke="rgb(0%, 0%, 59.999084%)" stroke-opacity="1" stroke-miterlimit="10" d="M 6.802062 0.000408258 L 1.93205 1.846774 L 3.55379 -0.000664292 L 1.929211 -1.845792 Z M 6.802062 0.000408258 " transform="matrix(-0.86601, 0.49998, 0.49998, 0.86601, 101.9217, 218.26672)"/>
<path fill="none" stroke-width="1.19553" stroke-linecap="butt" stroke-linejoin="miter" stroke="rgb(0%, 0%, 59.999084%)" stroke-opacity="1" stroke-miterlimit="10" d="M 113.832625 -0.00146875 L -113.831437 -0.00146875 " transform="matrix(1, 0, 0, -1, 197.683, 162.979)"/>
<path fill-rule="nonzero" fill="rgb(0%, 0%, 59.999084%)" fill-opacity="1" stroke-width="1.19553" stroke-linecap="butt" stroke-linejoin="miter" stroke="rgb(0%, 0%, 59.999084%)" stroke-opacity="1" stroke-miterlimit="10" d="M 6.800434 -0.00146875 L 1.92934 1.846188 L 3.55434 -0.00146875 L 1.92934 -1.845219 Z M 6.800434 -0.00146875 " transform="matrix(1, 0, 0, -1, 308.25816, 162.979)"/>
<path fill-rule="nonzero" fill="rgb(0%, 0%, 59.999084%)" fill-opacity="1" stroke-width="1.19553" stroke-linecap="butt" stroke-linejoin="miter" stroke="rgb(0%, 0%, 59.999084%)" stroke-opacity="1" stroke-miterlimit="10" d="M 6.803152 0.00146875 L 1.932059 1.845219 L 3.553152 0.00146875 L 1.932059 -1.846188 Z M 6.803152 0.00146875 " transform="matrix(-1, 0, 0, 1, 87.10784, 162.979)"/>
<path fill="none" stroke-width="1.19553" stroke-linecap="butt" stroke-linejoin="miter" stroke="rgb(0%, 0%, 59.999084%)" stroke-opacity="1" stroke-miterlimit="10" d="M 98.582625 -56.915531 L -98.581437 56.9165 " transform="matrix(1, 0, 0, -1, 197.683, 162.979)"/>
<path fill-rule="nonzero" fill="rgb(0%, 0%, 59.999084%)" fill-opacity="1" stroke-width="1.19553" stroke-linecap="butt" stroke-linejoin="miter" stroke="rgb(0%, 0%, 59.999084%)" stroke-opacity="1" stroke-miterlimit="10" d="M 6.803091 0.000185496 L 1.930239 1.846386 L 3.554819 0.00125805 L 1.929696 -1.848133 Z M 6.803091 0.000185496 " transform="matrix(0.86601, 0.49998, 0.49998, -0.86601, 293.4443, 218.26672)"/>
<path fill-rule="nonzero" fill="rgb(0%, 0%, 59.999084%)" fill-opacity="1" stroke-width="1.19553" stroke-linecap="butt" stroke-linejoin="miter" stroke="rgb(0%, 0%, 59.999084%)" stroke-opacity="1" stroke-miterlimit="10" d="M 6.802547 -0.00124724 L 1.929695 1.844953 L 3.554275 -0.000174694 L 1.930582 -1.84423 Z M 6.802547 -0.00124724 " transform="matrix(-0.86601, -0.49998, -0.49998, 0.86601, 101.9217, 107.69128)"/>
<path fill="none" stroke-width="1.19553" stroke-linecap="butt" stroke-linejoin="miter" stroke="rgb(0%, 0%, 59.999084%)" stroke-opacity="1" stroke-miterlimit="10" d="M 56.914656 -98.579594 L -56.917375 98.580563 " transform="matrix(1, 0, 0, -1, 197.683, 162.979)"/>
<path fill-rule="nonzero" fill="rgb(0%, 0%, 59.999084%)" fill-opacity="1" stroke-width="1.19553" stroke-linecap="butt" stroke-linejoin="miter" stroke="rgb(0%, 0%, 59.999084%)" stroke-opacity="1" stroke-miterlimit="10" d="M 6.800028 0.000572345 L 1.930016 1.846938 L 3.555139 -0.00245334 L 1.93056 -1.847581 Z M 6.800028 0.000572345 " transform="matrix(0.49998, 0.86601, 0.86601, -0.49998, 252.97072, 258.7403)"/>
<path fill-rule="nonzero" fill="rgb(0%, 0%, 59.999084%)" fill-opacity="1" stroke-width="1.19553" stroke-linecap="butt" stroke-linejoin="miter" stroke="rgb(0%, 0%, 59.999084%)" stroke-opacity="1" stroke-miterlimit="10" d="M 6.800273 -0.000940468 L 1.930261 1.845425 L 3.553954 0.00136999 L 1.932758 -1.845711 Z M 6.800273 -0.000940468 " transform="matrix(-0.49998, -0.86601, -0.86601, 0.49998, 142.39528, 67.2177)"/>
<g fill="rgb(0%, 0%, 59.999084%)" fill-opacity="1">
<use xlink:href="#glyph-1-0" x="14.293" y="318.301"/>
<use xlink:href="#glyph-1-1" x="21.793" y="318.301"/>
<use xlink:href="#glyph-1-2" x="29.293" y="318.301"/>
<use xlink:href="#glyph-1-3" x="36.793" y="318.301"/>
<use xlink:href="#glyph-1-4" x="44.293" y="318.301"/>
<use xlink:href="#glyph-1-5" x="51.793" y="318.301"/>
<use xlink:href="#glyph-1-1" x="59.293" y="318.301"/>
<use xlink:href="#glyph-1-6" x="66.793" y="318.301"/>
<use xlink:href="#glyph-1-5" x="74.293" y="318.301"/>
<use xlink:href="#glyph-1-7" x="81.793" y="318.301"/>
<use xlink:href="#glyph-1-8" x="89.293" y="318.301"/>
</g>
<path fill="none" stroke-width="1.19553" stroke-linecap="butt" stroke-linejoin="miter" stroke="rgb(0%, 0%, 59.999084%)" stroke-opacity="1" stroke-miterlimit="10" d="M -187.08925 -142.868656 L -163.27675 -142.868656 " transform="matrix(1, 0, 0, -1, 197.683, 162.979)"/>
</svg>
